<?xml version="1.0" encoding="UTF-8"?>
<svg id="_Слой_2" data-name="Слой 2" xmlns="http://www.w3.org/2000/svg" viewBox="0 0 107.47 194.64">
  <defs>
    <style>
      .cls-1 {
        fill: #00bc70;
      }
    </style>
  </defs>
  <g id="_Слой_1-2" data-name="Слой 1">
    <path class="cls-1" d="M1.77,10.25c27.83,27.83,55.67,55.67,83.5,83.5,4,4,8,8,12,12v-8.49c-25.4,25.4-50.79,50.79-76.19,76.19l-10.94,10.94c-5.47,5.47,3.02,13.96,8.49,8.49,25.4-25.4,50.79-50.79,76.19-76.19l10.94-10.94c2.29-2.29,2.3-6.19,0-8.49C77.92,69.43,50.08,41.6,22.25,13.76c-4-4-8-8-12-12C4.78-3.7-3.7,4.78,1.77,10.25h0Z"/>
  </g>
</svg>