<svg width="14" height="17" viewBox="0 0 14 17" fill="none" xmlns="http://www.w3.org/2000/svg">
<path d="M13.1875 7.13636C13.1875 11.9091 7.09375 16 7.09375 16C7.09375 16 1 11.9091 1 7.13636C1 5.5089 1.64202 3.94809 2.78482 2.7973C3.92762 1.64651 5.47759 1 7.09375 1C8.70991 1 10.2599 1.64651 11.4027 2.7973C12.5455 3.94809 13.1875 5.5089 13.1875 7.13636Z" stroke="#211D1E" stroke-linecap="round" stroke-linejoin="round"/>
<path d="M7.09378 9.18182C8.21561 9.18182 9.12503 8.26604 9.12503 7.13637C9.12503 6.00669 8.21561 5.09091 7.09378 5.09091C5.97195 5.09091 5.06253 6.00669 5.06253 7.13637C5.06253 8.26604 5.97195 9.18182 7.09378 9.18182Z" stroke="#211D1E" stroke-linecap="round" stroke-linejoin="round"/>
</svg>
